<svg aria-hidden="true" style="position: absolute; width: 0; height: 0; overflow: hidden;" version="1.1" xmlns="http://www.w3.org/2000/svg" xmlns:xlink="http://www.w3.org/1999/xlink">
<defs>
<symbol id="logo" viewBox="0 0 82 56">
  <g transform="translate(0, 56) scale(0.1, -0.1)" fill="#000">
    <path d="M328 481 c-81 -52 -113 -126 -49 -119 19 2 26 -2 26 -14 0 -10 3 -18 8 -18 4 0 12 0 18 0 6 0 9 6 6 14 -6 16 11 36 30 36 7 0 13 -7 13 -15 0 -30 -44 -107 -67 -118 -27 -12 -30 -27 -5 -27 29 0 70 51 90 110 16 46 26 59 60 78 44 25 52 42 28 61 -18 15 -51 0 -79 -36 -18 -22 -47 -32 -47 -15 0 5 7 17 15 28 15 20 20 64 7 64 -4 0 -29 -13 -54 -29z m16 -40 c-24 -36 -64 -61 -64 -40 0 11 71 79 83 79 4 0 -4 -18 -19 -39z m121 -1 c-3 -5 -11 -10 -16 -10 -6 0 -7 5 -4 10 3 6 11 10 16 10 6 0 7 -4 4 -10z"/>
    <path d="M165 476 c-17 -7 -36 -20 -44 -29 -19 -23 -7 -47 19 -40 12 3 19 11 16 18 -2 7 7 18 21 24 48 22 38 0 -27 -58 -57 -51 -63 -60 -51 -75 16 -19 36 -20 79 -5 27 9 49 35 39 46 -2 2 -23 -4 -47 -12 -24 -8 -45 -13 -47 -11 -2 2 19 20 46 39 58 42 72 63 60 95 -10 25 -21 27 -64 8z"/>
    <path d="M458 389 c-24 -9 -44 -36 -34 -46 2 -3 13 0 24 6 12 6 30 11 42 11 21 0 21 -1 -6 -32 -36 -44 -58 -98 -45 -111 14 -14 41 9 41 35 0 24 26 76 52 105 11 12 17 26 13 32 -8 13 -50 13 -87 0z"/>
    <path d="M231 182 c-25 -49 -37 -112 -22 -112 6 0 11 14 11 31 0 22 5 32 20 36 11 3 20 10 20 15 0 5 -4 6 -10 3 -5 -3 -10 -2 -10 4 0 18 12 41 22 41 5 0 6 -4 3 -10 -3 -5 -2 -10 3 -10 12 0 23 26 15 34 -15 15 -34 3 -52 -32z"/>
    <path d="M715 177 c-6 -13 -14 -17 -34 -12 -36 8 -71 -26 -51 -50 10 -12 10 -15 -1 -15 -10 0 -10 -3 -1 -12 19 -19 39 6 22 27 -11 13 -11 19 4 33 16 16 17 16 10 -3 -6 -16 -5 -18 7 -7 21 19 29 14 29 -18 0 -30 21 -42 35 -20 3 6 -1 7 -9 4 -9 -3 -16 -2 -16 4 0 23 13 42 29 42 10 0 12 3 5 8 -6 4 -13 14 -16 22 -5 12 -7 12 -13 -3z"/>
    <path d="M416 151 c-33 -36 -11 -91 22 -56 16 16 16 17 -5 10 -14 -4 -23 -2 -23 4 0 6 9 11 19 11 15 0 31 18 31 35 0 13 -31 10 -44 -4z m24 -11 c0 -5 -5 -10 -11 -10 -5 0 -7 5 -4 10 3 6 8 10 11 10 2 0 4 -4 4 -10z"/>
    <path d="M275 140 c-19 -21 -14 -50 9 -50 19 0 46 38 39 56 -7 20 -27 17 -48 -6z m29 -15 c-4 -8 -10 -15 -15 -15 -4 0 -6 7 -3 15 4 8 10 15 15 15 4 0 6 -7 3 -15z"/>
    <path d="M342 121 l-1 -36 15 28 c8 15 21 27 29 27 8 0 15 4 15 8 0 5 -13 9 -28 9 -26 0 -29 -4 -30 -36z"/>
    <path d="M476 139 c-8 -12 -12 -28 -9 -35 6 -16 39 -19 48 -4 3 6 -3 10 -14 10 -14 0 -19 5 -15 15 4 8 12 15 20 15 8 0 14 5 14 10 0 18 -28 11 -44 -11z"/>
    <path d="M544 134 c-13 -19 -14 -28 -5 -37 8 -8 14 -8 23 1 8 8 15 8 24 1 8 -7 14 -7 19 1 3 5 1 10 -5 10 -6 0 -10 6 -9 13 6 44 -21 51 -47 11z m36 2 c0 -2 -7 -9 -15 -16 -13 -11 -14 -10 -9 4 5 14 24 23 24 12z"/>
  </g>
</symbol>
<symbol id="user" viewBox="0 0 500 500">
<g fill="#556080">
  <path d="M177 486 c-149 -55 -217 -214 -147 -344 43 -81 57 -86 128 -42 38 23 40 45 12 101 -18 34 -20 50 -14 114 8 92 23 109 94 109 71 0 86 -17 94 -109 6 -69 5 -77 -19 -115 -37 -58 -30 -79 32 -113 l52 -28 21 23 c90 95 87 248 -6 342 -64 63 -171 90 -247 62z" transform="translate(0,500) scale(1,-1)" />
</g>
</symbol>
<symbol id="search" viewBox="0 0 24 24">
  <path fill="#000" d="M15.5 14h-.79l-.28-.27A6.471 6.471 0 0 0 16 9.5 6.5 6.5 0 1 0 9.5 16c1.61 0 3.09-.59 4.23-1.57l.27.28v.79l5 4.99L20.49 19l-4.99-5zm-6 0C7.01 14 5 11.99 5 9.5S7.01 5 9.5 5 14 7.01 14 9.5 11.99 14 9.5 14z"/>
</symbol>
<symbol id="refresh" viewBox="0 0 512 512">
  <path d="M373.375 64.562 C380.388 68.718 383.503 74.409 386 82 C386.589 84.593 387.11 87.127 387.55 89.742 C387.743 90.834 387.743 90.834 387.94 91.948 C388.359 94.327 388.766 96.708 389.172 99.09 C389.461 100.761 389.751 102.432 390.041 104.103 C390.644 107.594 391.242 111.087 391.835 114.58 C392.594 119.038 393.371 123.493 394.153 127.948 C394.755 131.394 395.346 134.843 395.933 138.292 C396.215 139.935 396.5 141.577 396.79 143.218 C400.116 162.143 400.116 162.143 396.836 169.672 C388.421 181.641 378.701 182.828 364.732 185.35 C362.121 185.804 359.511 186.255 356.898 186.699 C355.486 186.941 354.074 187.184 352.661 187.426 C349.726 187.929 346.789 188.428 343.853 188.926 C340.118 189.559 336.386 190.205 332.655 190.853 C329.747 191.356 326.839 191.85 323.929 192.343 C322.553 192.577 321.178 192.814 319.803 193.055 C297.658 196.916 297.658 196.916 289.852 192.402 C284.836 188.603 280.923 184.031 279 178 C278.105 171.174 278.285 165.402 282.441 159.75 C288.01 153.497 293.184 150.327 301.52 148.93 C303.052 148.669 303.052 148.669 304.615 148.402 C305.67 148.228 306.725 148.054 307.812 147.875 C308.887 147.693 309.961 147.511 311.068 147.324 C313.711 146.878 316.355 146.437 319 146 C299.834 130.87 266.659 128.201 243.335 130.711 C223.559 133.159 205.095 138.557 187.773 148.496 C185 150 185 150 183 150 C183 150.66 183 151.32 183 152 C182.01 152 181.02 152 180 152 C180 152.66 180 153.32 180 154 C179.01 154 178.02 154 177 154 C177 154.66 177 155.32 177 156 C175.68 156.33 174.36 156.66 173 157 C173 157.66 173 158.32 173 159 C172.216 159.247 171.432 159.495 170.625 159.75 C167.902 160.715 167.902 160.715 167.074 162.867 C165.804 165.389 164.368 166.599 162.187 168.375 C159.559 170.584 157.257 172.745 155.125 175.438 C154.073 176.706 154.073 176.706 153 178 C152.34 178 151.68 178 151 178 C150.34 179.65 149.68 181.3 149 183 C148.34 183 147.68 183 147 183 C146.505 184.98 146.505 184.98 146 186.999 C145.34 186.999 144.68 186.999 144 186.999 C144 187.989 144 188.979 144 190 C143.34 190 142.68 190 142 190 C141.91 190.535 141.82 191.07 141.727 191.621 C140.76 194.785 139.113 197.248 137.375 200.062 C121.134 227.591 116.324 264.187 123.027 295.27 C129.025 318.272 138.206 338.99 154 357 C154.673 357.817 155.346 358.635 156.039 359.477 C177.359 384.629 210.458 399.319 242.84 402.723 C269.135 404.713 294.296 400.684 318 389 C319.731 388.147 319.731 388.147 321.496 387.277 C334.97 380.31 346.56 370.975 357 360 C357.654 359.33 358.307 358.659 358.98 357.969 C376.115 339.802 386.402 316.262 391 291.938 C392.542 283.965 394.396 277.582 401.059 272.398 C407.221 268.351 412.662 267.107 420 268 C427.3 270.287 432.382 274.24 436 281 C442.893 298.267 431.821 323.568 425.066 339.598 C422.404 345.598 419.276 351.315 416 357 C412.865 362.427 412.865 362.427 410 368 C409.34 368 408.68 368 408 368 C407.691 368.784 407.381 369.568 407.062 370.375 C406 373 406 373 405 375 C404.34 375 403.68 375 403 375 C402.34 376.65 401.68 378.3 401 380 C400.34 380 399.68 380 399 380 C398.66 381.083 398.66 381.083 398.312 382.188 C396.719 385.602 394.726 387.395 392 390 C390.91 391.286 389.827 392.578 388.75 393.875 C385.553 397.582 382.056 400.474 378.113 403.359 C375.884 405.09 373.971 406.984 372 409 C367.333 413 367.333 413 365 413 C365 413.66 365 414.32 365 415 C364.01 415 363.02 415 362 415 C362 415.66 362 416.32 362 417 C354.904 423.19 345.431 426.984 337 431 C336.292 431.344 335.583 431.687 334.854 432.041 C318.067 440.137 300.428 445.252 282 448 C281.375 448.094 280.749 448.189 280.105 448.286 C272.502 449.288 264.843 449.244 257.188 449.25 C256.455 449.251 255.722 449.251 254.966 449.252 C243.093 449.235 231.617 448.594 220 446 C219.205 445.823 218.41 445.646 217.591 445.464 C183.63 437.652 154.095 421.001 129 397 C128.062 396.114 127.123 395.229 126.156 394.316 C92.5 361.748 75.024 315.057 73.646 268.761 C73.179 219.089 93.115 172.94 127.481 137.539 C160.478 104.107 206.169 84.401 253.242 83.758 C285.422 83.668 314.088 91.251 343 105 C342.772 103.805 342.544 102.61 342.309 101.379 C342.018 99.774 341.727 98.168 341.438 96.562 C341.286 95.779 341.135 94.996 340.979 94.189 C339.827 87.681 339.476 81.498 342.164 75.328 C349.502 64.89 360.671 58.813 373.375 64.562 Z" fill="currentColor"></path>
</symbol>
<symbol id="save" viewBox="0 0 512 512">
  <path fill="#FF4343" d="M227.871 69.547 C237.664 77.225 246.272 86.159 255 95 C255.784 94.34 256.567 93.68 257.375 93 C260 91 260 91 262 91 C262.259 90.404 262.518 89.809 262.785 89.195 C264.098 86.823 265.358 85.596 267.438 83.875 C270.783 81.064 273.959 78.137 277.125 75.125 C307.201 47.821 346.761 40.619 386 42 C391.823 42.416 397.361 43.49 403 45 C404.173 45.298 404.173 45.298 405.37 45.602 C417.35 48.695 428.233 52.912 439 59 C440.118 59.628 441.235 60.256 442.387 60.902 C474.614 79.912 499.381 110.694 509.033 147.071 C511.869 158.491 512.78 169.335 512.652 181.084 C512.625 184 512.652 186.912 512.684 189.828 C512.735 218.324 502.799 243.405 488.316 267.563 C487.722 268.554 487.722 268.554 487.115 269.566 C486.563 270.276 486.563 270.276 486 271 C485.34 271 484.68 271 484 271 C484 271.99 484 272.98 484 274 C483.34 274 482.68 274 482 274 C481.34 275.65 480.68 277.3 480 279 C479.34 279 478.68 279 478 279 C477.732 279.804 477.464 280.609 477.188 281.438 C476.796 282.283 476.404 283.129 476 284 C475.01 284.33 474.02 284.66 473 285 C472.314 286.324 471.652 287.659 471 289 C460.391 301.764 448.241 313.947 435.188 324.184 C433.288 325.761 431.82 327.249 430.312 329.188 C427.774 332.275 425.071 334.251 421.844 336.562 C419.478 338.407 417.862 340.658 416 343 C414.286 344.321 412.517 345.531 410.73 346.75 C407.317 349.216 404.575 352.394 401.688 355.438 C399.513 357.511 397.41 359.232 395 361 C391.685 363.432 388.877 366.052 386 369 C381.339 373.255 376.579 377.398 371.766 381.48 C370.45 382.613 369.15 383.765 367.859 384.926 C367.143 385.569 366.426 386.212 365.688 386.875 C365.031 387.471 364.375 388.066 363.7 388.68 C362 390 362 390 360 390 C359.67 390.99 359.34 391.98 359 393 C355.556 396 355.556 396 353 396 C352.67 396.99 352.34 397.98 352 399 C350.341 400.014 348.673 401.011 347 402 C346.237 402.763 345.474 403.526 344.688 404.312 C342.509 406.491 340.47 408.198 338 410 C335.613 411.746 333.603 413.397 331.5 415.5 C328.797 418.203 325.917 420.346 322.84 422.598 C320.898 424.013 320.898 424.013 319 426 C316.499 428.501 313.72 430.471 310.875 432.562 C308.904 434.008 308.904 434.008 307 436 C305.095 437.905 303.167 439.407 301 441 C298.073 443.154 295.531 445.385 293 447 C287.467 452 287.467 452 285 452 C285 452.66 285 453.32 285 454 C283.341 455.014 281.673 456.011 280 457 C279.278 457.722 278.556 458.444 277.812 459.188 C277.214 459.786 276.616 460.384 276 461 C275.34 461 274.68 461 274 461 C273.67 461.99 273.34 462.98 273 464 C266.728 468.851 260.202 469.558 252.492 469.566 C244.706 468.304 239.323 463.942 233.625 458.75 C232.309 457.579 230.991 456.41 229.672 455.242 C229.041 454.681 228.41 454.12 227.76 453.542 C225.52 451.58 223.214 449.717 220.875 447.875 C216.457 444.395 212.169 440.78 207.886 437.136 C204.454 434.22 200.994 431.343 197.5 428.5 C188.228 420.946 179.164 413.147 170.099 405.347 C166.525 402.281 162.91 399.276 159.25 396.312 C154.871 392.759 150.686 389.037 146.52 385.238 C143.968 382.972 141.348 380.825 138.688 378.688 C133.236 374.279 128.123 369.565 123 364.785 C120.041 362.027 117.016 359.354 113.957 356.707 C110.743 353.904 107.591 351.033 104.426 348.176 C102.363 346.326 100.283 344.501 98.188 342.688 C93.059 338.218 88.088 333.577 83.105 328.946 C81.473 327.437 79.833 325.935 78.191 324.437 C70.368 317.285 62.74 309.957 55.233 302.474 C53.376 300.626 51.508 298.789 49.641 296.953 C29.913 277.398 14.589 255.124 5.625 228.688 C5.398 228.02 5.172 227.353 4.938 226.665 C4.231 224.457 3.607 222.238 3 220 C2.732 219.061 2.464 218.122 2.188 217.155 C-0.426 206.8 -0.525 196.591 -0.501 185.962 C-0.5 182.901 -0.542 179.842 -0.586 176.781 C-0.805 140.518 15.2 108.718 40 83 C40.715 82.221 41.431 81.443 42.168 80.641 C89.525 30.53 174.19 28.118 227.871 69.547 Z M84 108 C84 108.66 84 109.32 84 110 C82.979 110.248 82.979 110.248 81.938 110.5 C78.26 112.378 76.322 114.822 73.711 117.969 C72.253 119.699 70.764 121.259 69.125 122.812 C66.793 124.896 66.793 124.896 66 128 C65.34 128 64.68 128 64 128 C64 129 64 130 64 131 C63.34 131 62.68 131 62 131 C62 132 62 133 62 134 C61.34 134 60.68 134 60 134 C54.716 144.479 50.436 154.481 48 166 C47.809 166.899 47.618 167.797 47.422 168.723 C43.854 196.442 50.772 223.464 67.25 246.062 C75.279 256.318 84.426 265.595 93.644 274.775 C95.201 276.326 96.752 277.882 98.303 279.439 C103.101 284.241 107.942 288.937 113.103 293.352 C117.417 297.099 121.504 301.102 125.645 305.039 C129.76 308.936 133.936 312.737 138.218 316.45 C140.449 318.39 142.631 320.38 144.812 322.375 C148.254 325.485 151.763 328.465 155.375 331.375 C159.927 335.055 164.233 338.925 168.515 342.909 C172.649 346.733 176.965 350.288 181.352 353.82 C183.973 355.977 186.491 358.213 189 360.5 C193.197 364.322 197.537 367.915 201.949 371.484 C205.521 374.43 209.012 377.457 212.5 380.5 C217.679 385.015 222.918 389.433 228.258 393.758 C231.37 396.303 234.437 398.896 237.5 401.5 C243.274 406.407 249.116 411.225 255 416 C258.917 414.348 261.891 411.696 265.062 408.938 C266.23 407.936 267.398 406.934 268.566 405.934 C269.147 405.436 269.727 404.938 270.325 404.425 C272.688 402.415 275.091 400.456 277.5 398.5 C283.177 393.876 288.763 389.148 294.343 384.407 C297.059 382.101 299.78 379.801 302.5 377.5 C303.585 376.582 304.669 375.664 305.754 374.746 C307.906 372.925 310.06 371.104 312.215 369.285 C318.986 363.566 325.73 357.818 332.453 352.043 C334.834 350 337.22 347.96 339.609 345.926 C345.042 341.296 350.431 336.643 355.688 331.812 C359.28 328.511 362.95 325.373 366.75 322.312 C370.516 319.273 373.985 316.134 377.348 312.66 C379.044 310.956 380.805 309.383 382.625 307.812 C387.393 303.697 392.002 299.414 396.617 295.129 C398.692 293.204 400.779 291.297 402.883 289.402 C409.96 282.995 416.807 276.355 423.592 269.64 C424.636 268.608 425.682 267.579 426.731 266.552 C436.393 257.089 445.352 246.975 451.812 235 C452.179 234.332 452.546 233.664 452.924 232.976 C465.541 209.485 469.125 181.61 461.594 155.903 C460.083 151.065 458.263 146.533 456 142 C455.447 140.882 454.894 139.765 454.324 138.613 C449.556 129.448 443.341 122.213 436 115 C434.966 113.968 434.966 113.968 433.91 112.914 C416.572 96.712 391.516 88.557 368 89 C350.485 89.692 335.088 94.126 320 103 C318.673 103.68 317.343 104.353 316 105 C316 105.66 316 106.32 316 107 C315.01 107 314.02 107 313 107 C313 107.66 313 108.32 313 109 C311.917 109.34 311.917 109.34 310.812 109.688 C307.395 111.282 305.624 113.28 303 116 C301.936 117.082 300.871 118.163 299.805 119.242 C298.944 120.118 298.944 120.118 298.065 121.012 C295.464 123.654 292.854 126.287 290.245 128.92 C288.876 130.304 287.51 131.691 286.146 133.08 C284.161 135.102 282.165 137.114 280.168 139.125 C279.269 140.047 279.269 140.047 278.352 140.988 C271.903 147.439 265.597 152.071 256.25 152.25 C255.451 152.276 254.652 152.302 253.828 152.328 C246.76 151.508 241.821 148.583 236.84 143.668 C236.015 142.881 236.015 142.881 235.174 142.079 C228.241 135.412 221.534 128.497 214.878 121.555 C195.757 101.659 171.882 90.064 144.098 88.969 C122.718 88.886 101.305 95.195 84 108 Z"></path>
</symbol>
<symbol id="delete" viewBox="0 0 512 512"> 
<path d="M0 0 C5.03886231 3.74524134 9.01779788 8.37631795 10.88671875 14.40234375 C11.18082357 17.68889042 11.15905478 20.96411003 11.14500427 24.26197815 C11.14867998 25.26233736 11.15235568 26.26269658 11.15614277 27.29336971 C11.16613234 30.64948892 11.16196995 34.00544276 11.15795898 37.36157227 C11.16234561 39.76645586 11.16764753 42.17133792 11.17379761 44.57621765 C11.1853058 49.75828669 11.19095031 54.94032768 11.191679 60.12240791 C11.19300617 67.6278761 11.20813226 75.1332699 11.22717417 82.6387118 C11.2580153 94.83343212 11.28217858 107.02815433 11.30004883 119.22290039 C11.30112151 119.95261639 11.30219419 120.68233239 11.30329937 121.434161 C11.3151083 129.56729139 11.32531461 137.70042254 11.33374023 145.83355713 C11.33681394 148.77876792 11.33990278 151.7239787 11.34301758 154.66918945 C11.34378292 155.39589191 11.34454826 156.12259437 11.34533679 156.87131811 C11.35844359 169.01241872 11.38312021 181.15346567 11.41676098 193.29452652 C11.43699391 200.77491084 11.44734827 208.25518017 11.44477177 215.73559206 C11.44360904 221.47770066 11.45782907 227.2196924 11.47758102 232.96176338 C11.48316394 235.30944163 11.48368112 237.65713848 11.47864342 240.00481796 C11.36866325 263.88217222 11.36866325 263.88217222 22.6328125 284.40234375 C31.72411477 293.1723318 43.243402 295.52035912 55.4947052 295.53605652 C56.59565231 295.53945485 56.59565231 295.53945485 57.71884078 295.54292184 C60.16129103 295.54921701 62.60368515 295.54843538 65.04614258 295.54760742 C66.8043271 295.55060171 68.56251096 295.55400486 70.32069397 295.55778503 C75.08526528 295.56660173 79.84981861 295.56896217 84.61439729 295.56960082 C87.59434523 295.57031264 90.57428864 295.57244947 93.55423546 295.57509804 C103.95941838 295.58434373 114.3645885 295.58843389 124.76977539 295.58764648 C134.45421252 295.58704589 144.13859391 295.59759613 153.82301694 295.61339015 C162.15021202 295.62648461 170.47738893 295.63182958 178.80459422 295.63119107 C183.7724524 295.63093665 188.74026102 295.63375719 193.7081089 295.64436913 C198.38258223 295.65408221 203.05695895 295.65410733 207.73143578 295.64685249 C209.44139116 295.64581064 211.15135267 295.64814569 212.86129761 295.65421295 C228.36207054 295.70562586 242.16324937 294.62688002 254.06640625 283.54296875 C262.49932503 273.62614581 264.2042662 261.46579806 264.13154602 248.91452026 C264.13381059 247.90706666 264.13607517 246.89961306 264.13840836 245.86163056 C264.14367301 242.51169191 264.13489869 239.16194097 264.1262207 235.81201172 C264.12733442 233.39990174 264.12939354 230.98779205 264.13232422 228.57568359 C264.13703604 223.39423321 264.13607101 218.21281632 264.13054848 213.03136826 C264.12230431 204.837135 264.13359337 196.64298167 264.14775085 188.44876099 C264.15235089 185.64038677 264.1568014 182.83201233 264.16118908 180.02363777 C264.16283629 178.97116744 264.16283629 178.97116744 264.16451678 177.89743509 C264.17666928 169.92658095 264.18423713 161.95572426 264.19018555 153.98486328 C264.19073361 153.25692555 264.19128167 152.52898781 264.19184633 151.77899136 C264.20031402 139.97068025 264.196962 128.16239191 264.1910312 116.35408066 C264.18541128 104.21282234 264.198956 92.07167862 264.22858399 79.93045533 C264.24610322 72.45041312 264.2477843 64.97070268 264.22893884 57.49066211 C264.21594757 51.76000836 264.22887548 46.02964007 264.25136566 40.29902649 C264.25641497 37.95127228 264.2529229 35.60348172 264.24023247 33.25575638 C264.22412959 30.04870283 264.2387656 26.84318453 264.26094055 23.63619995 C264.2428843 22.24562592 264.2428843 22.24562592 264.22446328 20.82695949 C264.32847441 13.44127785 266.82694863 8.82558548 271.6953125 3.37890625 C277.25622706 -1.23518593 282.24438986 -3.11446112 289.51953125 -2.90625 C296.34642115 -2.0162759 301.26264967 1.09316091 305.59765625 6.328125 C309.66117039 12.86668866 310.32259605 18.08189401 310.2743988 25.65193176 C310.28247711 27.17931041 310.28247711 27.17931041 310.29071862 28.73754519 C310.3050022 32.142618 310.29789307 35.54730227 310.29077148 38.95239258 C310.29647516 41.3970979 310.30343941 43.84180056 310.31156921 46.28649902 C310.32765991 52.23597321 310.3295986 58.18529539 310.32435631 64.13477645 C310.3203077 68.97762009 310.3217664 73.8204326 310.32710457 78.66327477 C310.32785299 79.35374499 310.32860141 80.04421522 310.32937251 80.75560879 C310.3309041 82.1586219 310.33244245 83.561635 310.33398748 84.96464809 C310.34771133 98.11938444 310.34227799 111.27406132 310.33080227 124.42879631 C310.32089286 136.42782353 310.33377093 148.42669604 310.35773646 160.42569939 C310.38220878 172.77253943 310.39171404 185.11930767 310.38508373 197.46617144 C310.38160655 204.38715429 310.38372228 211.30801857 310.40133476 218.22898293 C310.41772076 224.74862939 310.41274913 231.26805528 310.39402962 237.78769684 C310.39036713 240.16833887 310.39338305 242.549003 310.40391541 244.92962456 C310.47094313 261.34594511 310.23171496 278.40460627 301.88671875 293.08984375 C301.55671875 293.71310547 301.22671875 294.33636719 300.88671875 294.97851562 C299.91285517 296.80260775 298.90815555 298.60451676 297.88671875 300.40234375 C297.32210937 301.39741943 297.32210937 301.39741943 296.74609375 302.41259766 C295.79698143 304.0781394 294.84240221 305.7405638 293.88671875 307.40234375 C293.22671875 307.40234375 292.56671875 307.40234375 291.88671875 307.40234375 C291.72171875 308.08296875 291.55671875 308.76359375 291.38671875 309.46484375 C289.51993086 313.12063671 287.09483839 315.07322626 283.95703125 317.65625 C281.85714081 319.36397668 281.85714081 319.36397668 280.03515625 321.33984375 C265.94433946 334.86702787 245.00707242 341.55443464 225.83903503 341.54951477 C225.05762864 341.55319146 224.27622224 341.55686815 223.47113687 341.56065625 C220.86771398 341.57161851 218.2643311 341.57552424 215.66088867 341.5793457 C213.78760656 341.58561623 211.91432569 341.59226355 210.04104614 341.59925842 C203.89976863 341.62023957 197.75849106 341.63065856 191.6171875 341.640625 C189.49557292 341.64467545 187.37395846 341.64879245 185.25234413 341.65297508 C175.27734149 341.67201748 165.30234617 341.68624781 155.32732886 341.69458705 C143.85155895 341.70434167 132.37598283 341.73061879 120.90028113 341.77108794 C112.00651241 341.80136407 103.11279886 341.81606697 94.21897966 341.81936806 C88.91880412 341.82170635 83.61883582 341.83050581 78.31871605 341.85582924 C73.32240485 341.87931558 68.32643429 341.88326161 63.33008194 341.87306786 C61.5105977 341.87257727 59.69109549 341.87875433 57.87166405 341.8926239 C43.18308903 341.99819981 27.56726098 340.96489134 14.44921875 333.65234375 C13.79856445 333.30655273 13.14791016 332.96076172 12.47753906 332.60449219 C-8.65539935 321.09356326 -23.85178562 303.4759621 -31.04296875 280.421875 C-33.36109165 272.24221277 -34.26142192 264.67870975 -34.25372314 256.19898987 C-34.25669427 255.17383064 -34.25966539 254.14867141 -34.26272655 253.09244674 C-34.27139542 249.65870946 -34.27292025 246.22500712 -34.27441406 242.79125977 C-34.2790434 240.32885667 -34.28406821 237.86645428 -34.28945923 235.40405273 C-34.30257128 228.71613346 -34.30906235 222.02822782 -34.31346989 215.34029889 C-34.316236 211.16285339 -34.32047392 206.98541018 -34.32497406 202.80796623 C-34.33716104 191.23638969 -34.34746279 179.66481498 -34.35084915 168.09323215 C-34.35106872 167.35333339 -34.35128828 166.61343463 -34.3515145 165.85111469 C-34.35173278 165.10947956 -34.35195106 164.36784443 -34.35217595 163.60373551 C-34.35261941 162.10097666 -34.35306598 160.59821782 -34.35351562 159.09545898 C-34.35373705 158.35004386 -34.35395848 157.60462873 -34.35418662 156.83662527 C-34.35813648 144.75253663 -34.37559874 132.66850822 -34.39887515 120.58444286 C-34.42259264 108.17103049 -34.43505111 95.75764835 -34.43621707 83.34421295 C-34.43713339 76.37718829 -34.44287525 69.41024221 -34.46103668 62.44323921 C-34.47805339 55.89249333 -34.47968739 49.3418703 -34.47089767 42.79109955 C-34.47012578 40.38648263 -34.47448996 37.98185778 -34.48435593 35.57726097 C-34.49703162 32.29555566 -34.49122212 29.01438268 -34.48077393 25.73268127 C-34.49285853 24.30446315 -34.49285853 24.30446315 -34.50518727 22.84739214 C-34.44547869 14.83257607 -32.38241601 8.97345418 -26.90234375 2.98046875 C-19.35684871 -3.67538277 -8.77033411 -4.99891255 0 0 Z " fill="#000000" transform="translate(118.11328125,150.59765625)"/>
<path d="M0 0 C1.34809304 -0.00514938 2.69617931 -0.01243831 4.04425049 -0.02168274 C7.67656872 -0.04007245 11.30814546 -0.02733966 14.94043207 -0.00759244 C18.75634661 0.00889249 22.57221781 -0.00003212 26.38815308 -0.00511169 C32.7917657 -0.00962064 39.19508507 0.00616504 45.59863281 0.03417969 C52.98673794 0.06625376 60.37431524 0.06620144 67.76245797 0.04896492 C74.89269912 0.03306763 82.022748 0.03985212 89.1529808 0.05690193 C92.17754149 0.06374834 95.20194691 0.06276504 98.22650528 0.05535698 C101.79070406 0.04766058 105.35430635 0.05992804 108.91840363 0.08720589 C110.83950946 0.09730539 112.76068719 0.08794315 114.68179321 0.07788086 C123.20263553 0.17153482 128.61374921 1.33334239 135.13623047 7.13110352 C135.85810547 7.95610352 136.57998047 8.78110352 137.32373047 9.63110352 C138.15904297 10.55922852 138.15904297 10.55922852 139.01123047 11.50610352 C142.75699436 17.57067363 142.59588972 24.04369504 142.51904297 30.93969727 C142.51479813 32.38977928 142.51479813 32.38977928 142.51046753 33.86915588 C142.49933454 36.93576803 142.47424271 40.00208067 142.44873047 43.06860352 C142.43869177 45.1564899 142.42956748 47.2443809 142.42138672 49.33227539 C142.39941774 54.43199895 142.36493554 59.53150057 142.32373047 64.63110352 C143.42096436 64.62222107 144.51819824 64.61333862 145.64868164 64.60418701 C156.00629728 64.52298022 166.36384804 64.46308004 176.72171021 64.42385483 C182.04637964 64.40301053 187.37079136 64.37475042 192.6953125 64.3293457 C197.83707196 64.28577557 202.97858405 64.26194266 208.12051392 64.25159454 C210.07886649 64.24422322 212.03720606 64.22982875 213.99545288 64.20818329 C216.74579767 64.17900084 219.49512992 64.1751537 222.24560547 64.17700195 C223.45078575 64.1554303 223.45078575 64.1554303 224.68031311 64.13342285 C231.36010222 64.18176072 236.524266 66.17791427 241.56591797 70.59594727 C242.37416016 71.57241211 242.37416016 71.57241211 243.19873047 72.56860352 C243.75302734 73.21700195 244.30732422 73.86540039 244.87841797 74.53344727 C249.01540941 80.53767539 248.93282269 86.56563374 248.32373047 93.63110352 C247.20836292 98.20655287 245.00858043 101.65945033 241.32373047 104.63110352 C240.66373047 104.63110352 240.00373047 104.63110352 239.32373047 104.63110352 C239.32373047 105.29110352 239.32373047 105.95110352 239.32373047 106.63110352 C232.52416011 110.47521584 225.72211158 110.05419311 218.08984375 110.01878357 C216.62860772 110.02295876 215.16737494 110.02843729 213.70614815 110.03510338 C209.69925594 110.04955231 205.69256953 110.04531505 201.68566608 110.03793657 C197.36112349 110.03320589 193.03662547 110.04571379 188.71209717 110.05595398 C180.24368867 110.07314865 171.77535435 110.07398069 163.30693293 110.06874108 C156.42452396 110.06469978 149.54213692 110.06614246 142.659729 110.07148933 C141.68022061 110.07223776 140.70071223 110.07298618 139.69152176 110.07375728 C137.70167462 110.07528875 135.71182747 110.0768271 133.72198033 110.07837225 C115.06280733 110.09209943 96.40367626 110.08665782 77.74450421 110.07518703 C60.67154014 110.06525203 43.59868441 110.07819957 26.52573705 110.10212123 C8.99558798 110.1264985 -8.5345106 110.13612362 -26.06467628 110.1294685 C-35.906736 110.12597354 -45.74871237 110.12822674 -55.59075928 110.14571953 C-63.96804061 110.16042425 -72.34517987 110.1610995 -80.72245836 110.14364862 C-84.99677564 110.13512241 -89.27083894 110.13302853 -93.54514313 110.14830017 C-97.45842444 110.16210892 -101.3712333 110.15743368 -105.28448701 110.13806093 C-106.69960017 110.13428888 -108.11475083 110.13725759 -109.52983069 110.14767259 C-118.98872849 110.21233633 -124.12218681 109.54973283 -131.36376953 103.31860352 C-136.98573073 96.78497294 -138.41943799 92.44503347 -138.12158203 83.78735352 C-137.12087645 76.69463324 -132.87270849 72.39092315 -127.61767578 67.85766602 C-122.28692025 64.48974401 -117.0018902 64.34944879 -110.91699219 64.40405273 C-110.05780182 64.40376068 -109.19861145 64.40346863 -108.31338501 64.40316772 C-105.48892933 64.40455498 -102.66474132 64.42008767 -99.84033203 64.43579102 C-97.87592717 64.43952329 -95.91152043 64.44236925 -93.94711304 64.44436646 C-88.78829772 64.45198599 -83.62959584 64.47162006 -78.4708252 64.49377441 C-73.20208266 64.51426904 -67.93332172 64.5233759 -62.66455078 64.53344727 C-52.33507399 64.55486753 -42.00568121 64.5889832 -31.67626953 64.63110352 C-31.68626228 63.81210571 -31.68626228 63.81210571 -31.69645691 62.9765625 C-31.76310717 57.26592937 -31.80819267 51.55540773 -31.84106445 45.84448242 C-31.85610029 43.71650703 -31.87653436 41.58856237 -31.90258789 39.46069336 C-31.93920043 36.39241935 -31.95604834 33.32455702 -31.96923828 30.25610352 C-31.98472214 29.31307373 -32.00020599 28.37004395 -32.01615906 27.3984375 C-32.01808787 19.73460967 -30.69754941 12.87693326 -25.28666496 7.00290585 C-17.67457088 0.51860504 -9.63385045 -0.09070186 0 0 Z M14.32373047 45.63110352 C14.32373047 51.90110352 14.32373047 58.17110352 14.32373047 64.63110352 C41.38373047 64.63110352 68.44373047 64.63110352 96.32373047 64.63110352 C96.32373047 58.36110352 96.32373047 52.09110352 96.32373047 45.63110352 C69.26373047 45.63110352 42.20373047 45.63110352 14.32373047 45.63110352 Z " fill="#000000" transform="translate(200.67626953125,19.368896484375)"/>
<path d="M0 0 C6.52525636 3.84159143 10.6482633 9.28289968 12.6875 16.5 C12.94476891 19.67789841 12.94476891 19.67789841 12.95492554 23.15252686 C12.95945665 23.79579902 12.96398776 24.43907118 12.96865618 25.10183644 C12.98125086 27.24342107 12.97968305 29.38474977 12.97802734 31.52636719 C12.98401577 33.06766077 12.99082204 34.60895136 12.99838257 36.15023804 C13.01601978 40.328123 13.02073704 44.50592598 13.02201414 48.68384457 C13.02343781 51.2974501 13.02771155 53.91103493 13.03300858 56.52463531 C13.0515027 65.65250466 13.05968013 74.78031567 13.05810547 83.90820312 C13.05690487 92.40039224 13.07799272 100.89232688 13.1095928 109.38445163 C13.13579708 116.68828989 13.146471 123.99204527 13.14519465 131.29593015 C13.14468615 135.6524229 13.15030677 140.0086895 13.17155075 144.36513519 C13.19100283 148.46598331 13.19101042 152.5663912 13.17651749 156.6672554 C13.17443675 158.16597008 13.17908615 159.66471282 13.1912384 161.16337967 C13.25785633 169.95359569 13.28670838 179.00236264 7.34638023 186.10309982 C1.04507913 191.81777311 -5.20918149 193.07766605 -13.44140625 192.8515625 C-21.09031777 191.91496109 -25.84796241 186.64288204 -30.42567444 180.80519104 C-33.74058194 174.81594575 -32.85933966 167.57928128 -32.81420898 160.92944336 C-32.81799532 159.34210227 -32.82349795 157.75476449 -32.83058167 156.16743469 C-32.84451149 151.86992146 -32.83338453 147.57280969 -32.81687045 143.27531886 C-32.80299252 138.77245588 -32.80948306 134.26961556 -32.81300354 129.76673889 C-32.81570322 122.20697581 -32.80224999 114.64737173 -32.77905273 107.08764648 C-32.75243489 98.35283164 -32.75069985 89.61828242 -32.7624411 80.88344091 C-32.77322666 72.47231908 -32.76702632 64.06129314 -32.75288582 55.65017891 C-32.74713374 52.0741505 -32.74720255 48.49819244 -32.75195122 44.92216301 C-32.75672969 40.71053561 -32.7465834 36.49919847 -32.72499657 32.28762627 C-32.71944072 30.74370808 -32.71895236 29.19976193 -32.72394943 27.65584183 C-32.7299235 25.54509764 -32.71735803 23.43523463 -32.70018005 21.3245697 C-32.69775016 20.14454848 -32.69532026 18.96452726 -32.69281673 17.74874783 C-32.03168282 12.1011989 -29.24011556 7.53097386 -25.3125 3.5 C-17.85799533 -2.27327596 -8.81758364 -3.81069991 0 0 Z " fill="#000000" transform="translate(223.3125,192.5)"/>
<path d="M0 0 C5.35919055 3.39090602 8.34154749 8.49559498 11.125 14.0625 C11.22572674 16.17513549 11.26012682 18.29102295 11.26544189 20.40605164 C11.26841302 21.06435701 11.27138414 21.72266238 11.2744453 22.4009164 C11.28314922 24.61714383 11.28464198 26.83331735 11.28613281 29.04956055 C11.2907599 30.63453792 11.29578442 32.21951418 11.30117798 33.80448914 C11.31431715 38.11875228 11.32075024 42.43299985 11.32518864 46.74727988 C11.32811778 49.44257871 11.33222236 52.13787326 11.33669281 54.83316994 C11.35037364 63.2656282 11.36003662 71.69807672 11.3638947 80.13054532 C11.36837275 89.86491373 11.3859064 99.59914153 11.4148953 109.33346719 C11.43652029 116.85627521 11.44659947 124.3790437 11.44793582 131.90188247 C11.44898355 136.39523679 11.45488408 140.88845903 11.47275543 145.38178062 C11.48924956 149.61135693 11.49138513 153.84070212 11.48261642 158.07029915 C11.48184668 159.62025955 11.48618048 161.17023243 11.49607468 162.72016144 C11.50882028 164.84172439 11.50290399 166.96247203 11.49249268 169.08403015 C11.49395924 170.26962367 11.4954258 171.45521719 11.4969368 172.67673779 C10.85671265 178.50473526 8.79264476 183.29827035 4.125 187.0625 C3.465 187.0625 2.805 187.0625 2.125 187.0625 C2.125 187.7225 2.125 188.3825 2.125 189.0625 C-4.58695852 192.72356828 -11.73775234 193.44694471 -19.1796875 191.44140625 C-25.35135162 188.73980231 -30.47277187 183.61269295 -32.94861794 177.34428978 C-33.93307236 173.85677358 -34.13193857 170.97739032 -34.14242554 167.35855103 C-34.14695665 166.70978418 -34.15148776 166.06101733 -34.15615618 165.39259088 C-34.16875196 163.23251941 -34.16718299 161.07270164 -34.16552734 158.91259766 C-34.17151558 157.35820697 -34.17832181 155.80381926 -34.18588257 154.24943542 C-34.20351876 150.03656204 -34.20823691 145.82376994 -34.20951414 141.61086321 C-34.21093753 138.97650213 -34.21521067 136.3421616 -34.22050858 133.70780563 C-34.23900026 124.51091961 -34.24718018 115.3140915 -34.24560547 106.1171875 C-34.24440398 97.55452299 -34.26550999 88.9921105 -34.2970928 80.42950976 C-34.32327162 73.06880309 -34.33397211 65.70817867 -34.33269465 58.34742582 C-34.33218553 53.95522721 -34.337841 49.56325271 -34.35905075 45.17110062 C-34.37846058 41.03907011 -34.37853908 36.9074769 -34.36401749 32.77543068 C-34.36193175 31.26297553 -34.36661631 29.7504928 -34.3787384 28.23808479 C-34.44751009 19.06007651 -34.2306684 12.03298441 -27.91015625 4.8203125 C-27.25917969 4.28148437 -26.60820312 3.74265625 -25.9375 3.1875 C-25.28910156 2.63320312 -24.64070313 2.07890625 -23.97265625 1.5078125 C-16.93959295 -3.33805979 -7.64977047 -3.76005667 0 0 Z " fill="#000000" transform="translate(309.875,192.9375)"/>
</symbol>
<symbol id="inst" viewBox="0 0 512 512">
  <defs>
    <linearGradient id="igGrad" x1="0%" y1="100%" x2="100%" y2="0%">
      <stop offset="0%" stop-color="#FEDA75"/>
      <stop offset="25%" stop-color="#FA7E1E"/>
      <stop offset="50%" stop-color="#D62976"/>
      <stop offset="75%" stop-color="#962FBF"/>
      <stop offset="100%" stop-color="#4F5BD5"/>
    </linearGradient>
  </defs>
  <circle cx="256" cy="256" r="256" fill="url(#igGrad)" />
  <rect x="128" y="128" width="256" height="256" rx="64" ry="64" fill="none" stroke="#fff" stroke-width="28"/>
  <circle cx="256" cy="256" r="64" fill="none" stroke="#fff" stroke-width="28"/>
  <circle cx="328" cy="184" r="14" fill="#fff"/>
</symbol>
<symbol id="facebook" viewBox="0 0 32 32">
<path fill="#3b5998" d="M31.833 16c0 8.744-7.089 15.833-15.833 15.833s-15.833-7.089-15.833-15.833c0-8.744 7.089-15.833 15.833-15.833s15.833 7.089 15.833 15.833z"></path>
<path fill="#fff" d="M20.208 10.425c-0.493-0.099-1.16-0.172-1.579-0.172-1.135 0-1.209 0.493-1.209 1.283v1.405h2.837l-0.247 2.911h-2.59v8.856h-3.552v-8.856h-1.826v-2.911h1.826v-1.801c0-2.467 1.159-3.849 4.070-3.849 1.011 0 1.752 0.148 2.713 0.346l-0.444 2.788z"></path>
</symbol>
<symbol id="whatsapp" viewBox="0 0 32 32">
<path fill="#2cb742" style="fill: var(--color1, #2cb742)" d="M0 32l2.752-8.255c-1.396-2.349-2.2-5.090-2.2-8.020 0-8.684 7.040-15.724 15.724-15.724s15.724 7.040 15.724 15.724-7.040 15.724-15.724 15.724c-2.642 0-5.13-0.655-7.316-1.806l-8.96 2.358z"></path>
<path fill="#fff" style="fill: var(--color2, #fff)" d="M26.308 20.957c-0.726-1.372-3.404-2.941-3.404-2.941-0.606-0.345-1.337-0.384-1.682 0.232 0 0-0.87 1.043-1.091 1.193-1.011 0.685-1.947 0.658-2.892-0.287l-4.393-4.393c-0.945-0.945-0.972-1.881-0.287-2.892 0.15-0.221 1.193-1.091 1.193-1.091 0.616-0.346 0.577-1.076 0.232-1.682 0 0-1.569-2.678-2.941-3.404-0.584-0.309-1.3-0.201-1.767 0.266l-0.97 0.97c-3.077 3.077-1.562 6.551 1.515 9.628l5.624 5.624c3.077 3.077 6.551 4.592 9.628 1.515l0.97-0.97c0.467-0.468 0.574-1.185 0.265-1.768z"></path>
</symbol>
</svg>
